<svg xmlns="http://www.w3.org/2000/svg">
  <symbol id="add" viewBox="0 0 24 24">
    <path d="M12,20C7.59,20 4,16.41 4,12C4,7.59 7.59,4 12,4C16.41,4 20,7.59 20,12C20,16.41 16.41,20 12,20M12,2A10,10 0 0,0 2,12A10,10 0 0,0 12,22A10,10 0 0,0 22,12A10,10 0 0,0 12,2M13,7H11V11H7V13H11V17H13V13H17V11H13V7Z" />
  </symbol>

  <symbol id="edit" viewBox="0 0 24 24">
    <path d="M20.71,7.04C21.1,6.65 21.1,6 20.71,5.63L18.37,3.29C18,2.9 17.35,2.9 16.96,3.29L15.12,5.12L18.87,8.87M3,17.25V21H6.75L17.81,9.93L14.06,6.18L3,17.25Z" />
  </symbol>

  <symbol id="delete" viewBox="0 0 24 24">
    <path d="M6,19A2,2 0 0,0 8,21H16A2,2 0 0,0 18,19V7H6V19M8,9H16V19H8V9M15.5,4L14.5,3H9.5L8.5,4H5V6H19V4H15.5Z" />
  </symbol>

  <symbol id="arrow-left" viewBox="0 0 24 24">
    <path d="M15.41,16.58L10.83,12L15.41,7.41L14,6L8,12L14,18L15.41,16.58Z" />
  </symbol>

  <symbol id="arrow-right" viewBox="0 0 24 24">
    <path d="M8.59,16.58L13.17,12L8.59,7.41L10,6L16,12L10,18L8.59,16.58Z" />
  </symbol>

  <symbol id="export" viewBox="0 0 24 24">
    <path fill="currentColor" fill-rule="evenodd" d="m13 13.175l3.243-3.242l1.414 1.414L12 17.004l-5.657-5.657l1.414-1.414L11 13.175V2h2zM4 16h2v4h12v-4h2v4c0 1.1-.9 2-2 2H6c-1.1 0-2-.963-2-2z"/>
  </symbol>

  <symbol id="upload" viewBox="0 0 24 24">
    <path fill="currentColor" fill-rule="evenodd" d="M13 5.828V17h-2V5.828L7.757 9.071L6.343 7.657L12 2l5.657 5.657l-1.414 1.414zM4 16h2v4h12v-4h2v4c0 1.1-.9 2-2 2H6c-1.1 0-2-.963-2-2z"/>
  </symbol>
</svg>
