<svg xmlns="http://www.w3.org/2000/svg">
  <symbol id="search" viewBox="0 0 24 24">
    <path d="M9.5,3A6.5,6.5 0 0,1 16,9.5C16,11.11 15.41,12.59 14.44,13.73L14.71,14H15.5L20.5,19L19,20.5L14,15.5V14.71L13.73,14.44C12.59,15.41 11.11,16 9.5,16A6.5,6.5 0 0,1 3,9.5A6.5,6.5 0 0,1 9.5,3M9.5,5C7,5 5,7 5,9.5C5,12 7,14 9.5,14C12,14 14,12 14,9.5C14,7 12,5 9.5,5Z" />
  </symbol>

  <symbol id="password" viewBox="0 0 24 24">
    <path d="M12 17a2 2 0 0 0 2-2a2 2 0 0 0-2-2a2 2 0 0 0-2 2a2 2 0 0 0 2 2m6-9a2 2 0 0 1 2 2v10a2 2 0 0 1-2 2H6a2 2 0 0 1-2-2V10a2 2 0 0 1 2-2h1V6a5 5 0 0 1 5-5a5 5 0 0 1 5 5v2zm-6-5a3 3 0 0 0-3 3v2h6V6a3 3 0 0 0-3-3"/>
  </symbol>

  <symbol id="user" viewBox="0 0 24 24">
    <path d="M12 4a4 4 0 0 1 4 4a4 4 0 0 1-4 4a4 4 0 0 1-4-4a4 4 0 0 1 4-4m0 10c4.42 0 8 1.79 8 4v2H4v-2c0-2.21 3.58-4 8-4"/>
  </symbol>
</svg>
