<svg xmlns="http://www.w3.org/2000/svg">
  <symbol id="search" viewBox="0 0 24 24">
    <path d="M9.5,3A6.5,6.5 0 0,1 16,9.5C16,11.11 15.41,12.59 14.44,13.73L14.71,14H15.5L20.5,19L19,20.5L14,15.5V14.71L13.73,14.44C12.59,15.41 11.11,16 9.5,16A6.5,6.5 0 0,1 3,9.5A6.5,6.5 0 0,1 9.5,3M9.5,5C7,5 5,7 5,9.5C5,12 7,14 9.5,14C12,14 14,12 14,9.5C14,7 12,5 9.5,5Z" />
  </symbol>

  <symbol id="password" viewBox="0 0 24 24">
    <path d="M12 17a2 2 0 0 0 2-2a2 2 0 0 0-2-2a2 2 0 0 0-2 2a2 2 0 0 0 2 2m6-9a2 2 0 0 1 2 2v10a2 2 0 0 1-2 2H6a2 2 0 0 1-2-2V10a2 2 0 0 1 2-2h1V6a5 5 0 0 1 5-5a5 5 0 0 1 5 5v2zm-6-5a3 3 0 0 0-3 3v2h6V6a3 3 0 0 0-3-3"/>
  </symbol>

  <symbol id="user" viewBox="0 0 24 24">
    <path d="M12 4a4 4 0 0 1 4 4a4 4 0 0 1-4 4a4 4 0 0 1-4-4a4 4 0 0 1 4-4m0 10c4.42 0 8 1.79 8 4v2H4v-2c0-2.21 3.58-4 8-4"/>
  </symbol>

  <symbol id="eye-open" viewBox="0 0 24 24">
    <path d="M12 9a3 3 0 0 0-3 3a3 3 0 0 0 3 3a3 3 0 0 0 3-3a3 3 0 0 0-3-3m0 8a5 5 0 0 1-5-5a5 5 0 0 1 5-5a5 5 0 0 1 5 5a5 5 0 0 1-5 5m0-12.5C7 4.5 2.73 7.61 1 12c1.73 4.39 6 7.5 11 7.5s9.27-3.11 11-7.5c-1.73-4.39-6-7.5-11-7.5"/>
  </symbol>

  <symbol id="eye-close" viewBox="0 0 24 24">
    <path d="M11.83 9L15 12.16V12a3 3 0 0 0-3-3zm-4.3.8l1.55 1.55c-.05.21-.08.42-.08.65a3 3 0 0 0 3 3c.22 0 .44-.03.65-.08l1.55 1.55c-.67.33-1.41.53-2.2.53a5 5 0 0 1-5-5c0-.79.2-1.53.53-2.2M2 4.27l2.28 2.28l.45.45C3.08 8.3 1.78 10 1 12c1.73 4.39 6 7.5 11 7.5c1.55 0 3.03-.3 4.38-.84l.43.42L19.73 22L21 20.73L3.27 3M12 7a5 5 0 0 1 5 5c0 .64-.13 1.26-.36 1.82l2.93 2.93c1.5-1.25 2.7-2.89 3.43-4.75c-1.73-4.39-6-7.5-11-7.5c-1.4 0-2.74.25-4 .7l2.17 2.15C10.74 7.13 11.35 7 12 7"/>
  </symbol>
</svg>
