<svg xmlns="http://www.w3.org/2000/svg">
  <symbol id="equipments" viewBox="0 0 24 24">
    <path d="M22,17H18V10H22M23,8H17A1,1 0 0,0 16,9V19A1,1 0 0,0 17,20H23A1,1 0 0,0 24,19V9A1,1 0 0,0 23,8M4,6H22V4H4A2,2 0 0,0 2,6V17H0V20H14V17H4V6Z" />
  </symbol>

  <symbol id="branches" viewBox="0 0 24 24">
    <path d="M0,21V10L7.5,5L15,10V21H10V14H5V21H0M24,2V21H17V8.93L16,8.27V6H14V6.93L10,4.27V2H24M21,14H19V16H21V14M21,10H19V12H21V10M21,6H19V8H21V6Z" />
  </symbol>

  <symbol id="users" viewBox="0 0 24 24">
    <path d="M12,5.5A3.5,3.5 0 0,1 15.5,9A3.5,3.5 0 0,1 12,12.5A3.5,3.5 0 0,1 8.5,9A3.5,3.5 0 0,1 12,5.5M5,8C5.56,8 6.08,8.15 6.53,8.42C6.38,9.85 6.8,11.27 7.66,12.38C7.16,13.34 6.16,14 5,14A3,3 0 0,1 2,11A3,3 0 0,1 5,8M19,8A3,3 0 0,1 22,11A3,3 0 0,1 19,14C17.84,14 16.84,13.34 16.34,12.38C17.2,11.27 17.62,9.85 17.47,8.42C17.92,8.15 18.44,8 19,8M5.5,18.25C5.5,16.18 8.41,14.5 12,14.5C15.59,14.5 18.5,16.18 18.5,18.25V20H5.5V18.25M0,20V18.5C0,17.11 1.89,15.94 4.45,15.6C3.86,16.28 3.5,17.22 3.5,18.25V20H0M24,20H20.5V18.25C20.5,17.22 20.14,16.28 19.55,15.6C22.11,15.94 24,17.11 24,18.5V20Z" />
  </symbol>
</svg>
